<svg width="61" height="61" viewBox="0 0 61 61" fill="none" xmlns="http://www.w3.org/2000/svg">
<path d="M30.9165 0.120117C14.4165 0.120117 0.916504 13.6442 0.916504 30.3008C0.916504 45.3611 11.8965 57.8611 26.2365 60.1201V39.0358H18.6165V30.3008H26.2365V23.6442C26.2365 16.084 30.7065 11.9273 37.5765 11.9273C40.8465 11.9273 44.2665 12.4996 44.2665 12.4996V19.9394H40.4865C36.7665 19.9394 35.5965 22.2587 35.5965 24.6382V30.3008H43.9365L42.5865 39.0358H35.5965V60.1201C42.6658 58.9992 49.1031 55.3777 53.7462 49.9095C58.3894 44.4412 60.9325 37.4865 60.9164 30.3008C60.9164 13.6442 47.4164 0.120117 30.9165 0.120117Z" fill="#7C7C7C"/>
</svg>
